<?xml version="1.0" encoding="UTF-8"?>
<svg width="29px" height="18px" viewBox="0 0 29 18" version="1.1" xmlns="http://www.w3.org/2000/svg" xmlns:xlink="http://www.w3.org/1999/xlink">
    <!-- Generator: Sketch 46 (44423) - http://www.bohemiancoding.com/sketch -->
    <title>email</title>
    <desc>Created with Sketch.</desc>
    <defs></defs>
    <g id="Homepage" stroke="none" stroke-width="1" fill="none" fill-rule="evenodd">
        <g id="Desktop" transform="translate(-213.000000, -586.000000)" fill-rule="nonzero" fill="#FFFFFF">
            <g id="Hero-Buttons" transform="translate(194.000000, 565.000000)">
                <g id="email" transform="translate(19.000000, 21.000000)">
                    <path d="M1.92244328,1.41296928 C2.67956498,1.80887372 13.1966738,7.49488055 13.5890005,7.6996587 C13.9813272,7.90443686 14.3805368,8 15,8 C15.6194632,8 16.0186728,7.90443686 16.4109995,7.6996587 C16.8033262,7.49488055 27.320435,1.80887372 28.0775567,1.41296928 C28.3597566,1.26962457 28.8346784,1.01023891 28.9379223,0.716723549 C29.1168783,0.197952218 28.9241564,0 28.1601518,0 L15,0 L1.83984818,0 C1.07584355,0 0.883121663,0.204778157 1.0620777,0.716723549 C1.16532157,1.01706485 1.64024337,1.26962457 1.92244328,1.41296928 Z" id="Shape"></path>
                    <path d="M28.4208156,2.11933979 C27.8491926,2.40832927 22.7185278,6.01381712 19.323645,8.18123825 L25.0538168,14.5458876 C25.1932371,14.6835016 25.2559762,14.8486385 25.179295,14.9312069 C25.0956429,15.0068946 24.9143966,14.9656104 24.7680053,14.8348771 L17.8945876,9.11013302 C16.8559068,9.77068041 16.1239506,10.2248067 15.9984723,10.2936138 C15.4617044,10.5619611 15.0852698,10.5963646 14.5694149,10.5963646 C14.05356,10.5963646 13.6771254,10.5619611 13.1403575,10.2936138 C13.0079082,10.2248067 12.282923,9.77068041 11.2442422,9.11013302 L4.37082447,14.8348771 C4.23140423,14.9724911 4.04318691,15.0137753 3.95953477,14.9312069 C3.87588263,14.8555192 3.93862173,14.6835016 4.07804197,14.5458876 L9.80124275,8.18123825 C6.40635995,6.01381712 1.21992709,2.40832927 0.648304108,2.11933979 C0.0348550596,1.8097082 0,2.1743854 0,2.45649418 C0,2.73860297 0,16.5619333 0,16.5619333 C0,17.2018386 0.955028633,18 1.6381878,18 L14.5694149,18 L27.500642,18 C28.1838012,18 28.9994096,17.1949579 28.9994096,16.5619333 C28.9994096,16.5619333 28.9994096,2.73172226 28.9994096,2.45649418 C28.9994096,2.1675047 29.0412356,1.8097082 28.4208156,2.11933979 Z" id="Shape"></path>
                </g>
            </g>
        </g>
    </g>
</svg>