<?xml version="1.0" encoding="UTF-8"?>
<svg width="72px" height="72px" viewBox="0 0 72 72" version="1.1" xmlns="http://www.w3.org/2000/svg" xmlns:xlink="http://www.w3.org/1999/xlink">
    <!-- Generator: Sketch 46 (44423) - http://www.bohemiancoding.com/sketch -->
    <title>networking</title>
    <desc>Created with Sketch.</desc>
    <defs></defs>
    <g id="Homepage" stroke="none" stroke-width="1" fill="none" fill-rule="evenodd">
        <g id="Desktop" transform="translate(-762.000000, -861.000000)" fill="#FFFFFF">
            <g id="Features" transform="translate(194.000000, 858.000000)">
                <g id="networking" transform="translate(568.000000, 3.000000)">
                    <g id="Capa_1">
                        <g id="distribution-dot-node-connection-relationship_1_">
                            <path d="M45.8829433,36.8394231 C46.4020442,39.383576 48.6559471,41.3048077 51.3519231,41.3048077 C54.047899,41.3048077 56.3018019,39.383576 56.8209029,36.8394231 L60.3954433,36.8394231 C60.9145442,39.383576 63.1684471,41.3048077 65.8644231,41.3048077 C68.9421894,41.3048077 71.4461538,38.8008433 71.4461538,35.7230769 C71.4461538,32.6453106 68.9421894,30.1413462 65.8644231,30.1413462 C63.1695635,30.1413462 60.9145442,32.0625779 60.3954433,34.6067308 L56.8209029,34.6067308 C56.3018019,32.0625779 54.047899,30.1413462 51.3519231,30.1413462 C48.6559471,30.1413462 46.4020442,32.0625779 45.8829433,34.6067308 L41.1920567,34.6067308 C41.0469317,33.8956183 40.7633798,33.2347413 40.3748913,32.649776 L48.2786221,24.7460452 C49.1616519,25.3310106 50.216599,25.6759615 51.3519231,25.6759615 C54.4296894,25.6759615 56.9336538,23.1719971 56.9336538,20.0942308 C56.9336538,18.9589067 56.5887029,17.9039596 56.0037375,17.0209298 L59.4420837,13.5825837 C60.3251135,14.167549 61.3800606,14.5125 62.5153846,14.5125 C65.593151,14.5125 68.0971154,12.0085356 68.0971154,8.93076923 C68.0971154,5.85300288 65.593151,3.34903846 62.5153846,3.34903846 C59.4376183,3.34903846 56.9336538,5.85300288 56.9336538,8.93076923 C56.9336538,10.0660933 57.2786048,11.1210404 57.8635702,12.0040702 L54.425224,15.4424163 C53.5421942,14.857451 52.4872471,14.5125 51.3519231,14.5125 C48.2741567,14.5125 45.7701923,17.0164644 45.7701923,20.0942308 C45.7701923,21.2295548 46.1151433,22.2845019 46.7001087,23.1675317 L38.7963779,31.0712625 C38.2114125,30.682774 37.5505356,30.3992221 36.8394231,30.2540971 L36.8394231,25.5632106 C39.383576,25.0441096 41.3048077,22.7902067 41.3048077,20.0942308 C41.3048077,17.3982548 39.383576,15.1443519 36.8394231,14.625251 L36.8394231,11.0507106 C39.383576,10.5316096 41.3048077,8.27659038 41.3048077,5.58173077 C41.3048077,2.50396442 38.8008433,0 35.7230769,0 C32.6453106,0 30.1413462,2.50396442 30.1413462,5.58173077 C30.1413462,8.27659038 32.0625779,10.5316096 34.6067308,11.0507106 L34.6067308,14.625251 C32.0625779,15.1443519 30.1413462,17.3982548 30.1413462,20.0942308 C30.1413462,22.7902067 32.0625779,25.0441096 34.6067308,25.5632106 L34.6067308,30.2540971 C33.8956183,30.3992221 33.2347413,30.682774 32.649776,31.0712625 L24.7460452,23.1675317 C25.3310106,22.2845019 25.6759615,21.2295548 25.6759615,20.0942308 C25.6759615,17.0164644 23.1719971,14.5125 20.0942308,14.5125 C18.9589067,14.5125 17.9039596,14.857451 17.0209298,15.4424163 L13.5825837,12.0040702 C14.167549,11.1210404 14.5125,10.0660933 14.5125,8.93076923 C14.5125,5.85300288 12.0085356,3.34903846 8.93076923,3.34903846 C5.85300288,3.34903846 3.34903846,5.85300288 3.34903846,8.93076923 C3.34903846,12.0085356 5.85300288,14.5125 8.93076923,14.5125 C10.0660933,14.5125 11.1210404,14.167549 12.0040702,13.5825837 L15.4424163,17.0209298 C14.857451,17.9039596 14.5125,18.9589067 14.5125,20.0942308 C14.5125,23.1719971 17.0164644,25.6759615 20.0942308,25.6759615 C21.2295548,25.6759615 22.2845019,25.3310106 23.1675317,24.7460452 L31.0712625,32.649776 C30.682774,33.2347413 30.3992221,33.8956183 30.2540971,34.6067308 L25.5632106,34.6067308 C25.0441096,32.0625779 22.7902067,30.1413462 20.0942308,30.1413462 C17.3982548,30.1413462 15.1443519,32.0625779 14.625251,34.6067308 L11.0507106,34.6067308 C10.5316096,32.0625779 8.27659038,30.1413462 5.58173077,30.1413462 C2.50396442,30.1413462 0,32.6453106 0,35.7230769 C0,38.8008433 2.50396442,41.3048077 5.58173077,41.3048077 C8.27659038,41.3048077 10.5316096,39.383576 11.0507106,36.8394231 L14.625251,36.8394231 C15.1443519,39.383576 17.3982548,41.3048077 20.0942308,41.3048077 C22.7902067,41.3048077 25.0441096,39.383576 25.5632106,36.8394231 L30.2540971,36.8394231 C30.3992221,37.5505356 30.682774,38.2114125 31.0712625,38.7963779 L23.1675317,46.7001087 C22.2845019,46.1151433 21.2295548,45.7701923 20.0942308,45.7701923 C17.0164644,45.7701923 14.5125,48.2741567 14.5125,51.3519231 C14.5125,52.4872471 14.857451,53.5421942 15.4424163,54.425224 L12.0040702,57.8635702 C11.1210404,57.2786048 10.0660933,56.9336538 8.93076923,56.9336538 C5.85300288,56.9336538 3.34903846,59.4376183 3.34903846,62.5153846 C3.34903846,65.593151 5.85300288,68.0971154 8.93076923,68.0971154 C12.0085356,68.0971154 14.5125,65.593151 14.5125,62.5153846 C14.5125,61.3800606 14.167549,60.3251135 13.5825837,59.4420837 L17.0209298,56.0037375 C17.9039596,56.5887029 18.9589067,56.9336538 20.0942308,56.9336538 C23.1719971,56.9336538 25.6759615,54.4296894 25.6759615,51.3519231 C25.6759615,50.216599 25.3310106,49.1616519 24.7460452,48.2786221 L32.649776,40.3748913 C33.2347413,40.7633798 33.8956183,41.0469317 34.6067308,41.1920567 L34.6067308,45.8829433 C32.0625779,46.4020442 30.1413462,48.6559471 30.1413462,51.3519231 C30.1413462,54.047899 32.0625779,56.3018019 34.6067308,56.8209029 L34.6067308,60.3954433 C32.0625779,60.9145442 30.1413462,63.1684471 30.1413462,65.8644231 C30.1413462,68.9421894 32.6453106,71.4461538 35.7230769,71.4461538 C38.8008433,71.4461538 41.3048077,68.9421894 41.3048077,65.8644231 C41.3048077,63.1695635 39.383576,60.9145442 36.8394231,60.3954433 L36.8394231,56.8209029 C39.383576,56.3018019 41.3048077,54.047899 41.3048077,51.3519231 C41.3048077,48.6559471 39.383576,46.4020442 36.8394231,45.8829433 L36.8394231,41.1920567 C37.5505356,41.0469317 38.2114125,40.7633798 38.7963779,40.3748913 L46.7001087,48.2786221 C46.1151433,49.1616519 45.7701923,50.216599 45.7701923,51.3519231 C45.7701923,54.4296894 48.2741567,56.9336538 51.3519231,56.9336538 C52.4872471,56.9336538 53.5421942,56.5887029 54.425224,56.0037375 L57.8635702,59.4420837 C57.2786048,60.3251135 56.9336538,61.3800606 56.9336538,62.5153846 C56.9336538,65.593151 59.4376183,68.0971154 62.5153846,68.0971154 C65.593151,68.0971154 68.0971154,65.593151 68.0971154,62.5153846 C68.0971154,59.4376183 65.593151,56.9336538 62.5153846,56.9336538 C61.3800606,56.9336538 60.3251135,57.2786048 59.4420837,57.8635702 L56.0037375,54.425224 C56.5887029,53.5421942 56.9336538,52.4872471 56.9336538,51.3519231 C56.9336538,48.2741567 54.4296894,45.7701923 51.3519231,45.7701923 C50.216599,45.7701923 49.1616519,46.1151433 48.2786221,46.7001087 L40.3748913,38.7963779 C40.7633798,38.2114125 41.0469317,37.5505356 41.1920567,36.8394231 L45.8829433,36.8394231 L45.8829433,36.8394231 Z M65.8644231,32.3740385 C67.7108596,32.3740385 69.2134615,33.8766404 69.2134615,35.7230769 C69.2134615,37.5695135 67.7108596,39.0721154 65.8644231,39.0721154 C64.0179865,39.0721154 62.5153846,37.5695135 62.5153846,35.7230769 C62.5153846,33.8766404 64.0179865,32.3740385 65.8644231,32.3740385 L65.8644231,32.3740385 Z M51.3519231,32.3740385 C53.1983596,32.3740385 54.7009615,33.8766404 54.7009615,35.7230769 C54.7009615,37.5695135 53.1983596,39.0721154 51.3519231,39.0721154 C49.5054865,39.0721154 48.0028846,37.5695135 48.0028846,35.7230769 C48.0028846,33.8766404 49.5054865,32.3740385 51.3519231,32.3740385 L51.3519231,32.3740385 Z M5.58173077,39.0721154 C3.73529423,39.0721154 2.23269231,37.5695135 2.23269231,35.7230769 C2.23269231,33.8766404 3.73529423,32.3740385 5.58173077,32.3740385 C7.42816731,32.3740385 8.93076923,33.8766404 8.93076923,35.7230769 C8.93076923,37.5695135 7.42816731,39.0721154 5.58173077,39.0721154 L5.58173077,39.0721154 Z M20.0942308,39.0721154 C18.2477942,39.0721154 16.7451923,37.5695135 16.7451923,35.7230769 C16.7451923,33.8766404 18.2477942,32.3740385 20.0942308,32.3740385 C21.9406673,32.3740385 23.4432692,33.8766404 23.4432692,35.7230769 C23.4432692,37.5695135 21.9406673,39.0721154 20.0942308,39.0721154 L20.0942308,39.0721154 Z M62.5153846,5.58173077 C64.3618212,5.58173077 65.8644231,7.08433269 65.8644231,8.93076923 C65.8644231,10.7772058 64.3618212,12.2798077 62.5153846,12.2798077 C60.6689481,12.2798077 59.1663462,10.7772058 59.1663462,8.93076923 C59.1663462,7.08433269 60.6689481,5.58173077 62.5153846,5.58173077 L62.5153846,5.58173077 Z M51.3519231,16.7451923 C53.1983596,16.7451923 54.7009615,18.2477942 54.7009615,20.0942308 C54.7009615,21.9406673 53.1983596,23.4432692 51.3519231,23.4432692 C49.5054865,23.4432692 48.0028846,21.9406673 48.0028846,20.0942308 C48.0028846,18.2477942 49.5054865,16.7451923 51.3519231,16.7451923 L51.3519231,16.7451923 Z M32.3740385,5.58173077 C32.3740385,3.73529423 33.8766404,2.23269231 35.7230769,2.23269231 C37.5695135,2.23269231 39.0721154,3.73529423 39.0721154,5.58173077 C39.0721154,7.42816731 37.5695135,8.93076923 35.7230769,8.93076923 C33.8766404,8.93076923 32.3740385,7.42816731 32.3740385,5.58173077 L32.3740385,5.58173077 Z M32.3740385,20.0942308 C32.3740385,18.2477942 33.8766404,16.7451923 35.7230769,16.7451923 C37.5695135,16.7451923 39.0721154,18.2477942 39.0721154,20.0942308 C39.0721154,21.9406673 37.5695135,23.4432692 35.7230769,23.4432692 C33.8766404,23.4432692 32.3740385,21.9406673 32.3740385,20.0942308 L32.3740385,20.0942308 Z M8.93076923,12.2798077 C7.08433269,12.2798077 5.58173077,10.7772058 5.58173077,8.93076923 C5.58173077,7.08433269 7.08433269,5.58173077 8.93076923,5.58173077 C10.7772058,5.58173077 12.2798077,7.08433269 12.2798077,8.93076923 C12.2798077,10.7772058 10.7772058,12.2798077 8.93076923,12.2798077 L8.93076923,12.2798077 Z M20.0942308,23.4432692 C18.2477942,23.4432692 16.7451923,21.9406673 16.7451923,20.0942308 C16.7451923,18.2477942 18.2477942,16.7451923 20.0942308,16.7451923 C21.9406673,16.7451923 23.4432692,18.2477942 23.4432692,20.0942308 C23.4432692,21.9406673 21.9406673,23.4432692 20.0942308,23.4432692 L20.0942308,23.4432692 Z M8.93076923,65.8644231 C7.08433269,65.8644231 5.58173077,64.3618212 5.58173077,62.5153846 C5.58173077,60.6689481 7.08433269,59.1663462 8.93076923,59.1663462 C10.7772058,59.1663462 12.2798077,60.6689481 12.2798077,62.5153846 C12.2798077,64.3618212 10.7772058,65.8644231 8.93076923,65.8644231 L8.93076923,65.8644231 Z M20.0942308,54.7009615 C18.2477942,54.7009615 16.7451923,53.1983596 16.7451923,51.3519231 C16.7451923,49.5054865 18.2477942,48.0028846 20.0942308,48.0028846 C21.9406673,48.0028846 23.4432692,49.5054865 23.4432692,51.3519231 C23.4432692,53.1983596 21.9406673,54.7009615 20.0942308,54.7009615 L20.0942308,54.7009615 Z M39.0721154,65.8644231 C39.0721154,67.7108596 37.5695135,69.2134615 35.7230769,69.2134615 C33.8766404,69.2134615 32.3740385,67.7108596 32.3740385,65.8644231 C32.3740385,64.0179865 33.8766404,62.5153846 35.7230769,62.5153846 C37.5695135,62.5153846 39.0721154,64.0179865 39.0721154,65.8644231 L39.0721154,65.8644231 Z M39.0721154,51.3519231 C39.0721154,53.1983596 37.5695135,54.7009615 35.7230769,54.7009615 C33.8766404,54.7009615 32.3740385,53.1983596 32.3740385,51.3519231 C32.3740385,49.5054865 33.8766404,48.0028846 35.7230769,48.0028846 C37.5695135,48.0028846 39.0721154,49.5054865 39.0721154,51.3519231 L39.0721154,51.3519231 Z M35.7230769,39.0721154 C33.8766404,39.0721154 32.3740385,37.5695135 32.3740385,35.7230769 C32.3740385,33.8766404 33.8766404,32.3740385 35.7230769,32.3740385 C37.5695135,32.3740385 39.0721154,33.8766404 39.0721154,35.7230769 C39.0721154,37.5695135 37.5695135,39.0721154 35.7230769,39.0721154 L35.7230769,39.0721154 Z M62.5153846,59.1663462 C64.3618212,59.1663462 65.8644231,60.6689481 65.8644231,62.5153846 C65.8644231,64.3618212 64.3618212,65.8644231 62.5153846,65.8644231 C60.6689481,65.8644231 59.1663462,64.3618212 59.1663462,62.5153846 C59.1663462,60.6689481 60.6689481,59.1663462 62.5153846,59.1663462 L62.5153846,59.1663462 Z M51.3519231,48.0028846 C53.1983596,48.0028846 54.7009615,49.5054865 54.7009615,51.3519231 C54.7009615,53.1983596 53.1983596,54.7009615 51.3519231,54.7009615 C49.5054865,54.7009615 48.0028846,53.1983596 48.0028846,51.3519231 C48.0028846,49.5054865 49.5054865,48.0028846 51.3519231,48.0028846 L51.3519231,48.0028846 Z" id="Shape"></path>
                        </g>
                    </g>
                </g>
            </g>
        </g>
    </g>
</svg>