<?xml version="1.0" encoding="UTF-8"?>
<svg width="72px" height="73px" viewBox="0 0 72 73" version="1.1" xmlns="http://www.w3.org/2000/svg" xmlns:xlink="http://www.w3.org/1999/xlink">
    <!-- Generator: Sketch 46 (44423) - http://www.bohemiancoding.com/sketch -->
    <title>charity</title>
    <desc>Created with Sketch.</desc>
    <defs></defs>
    <g id="Homepage" stroke="none" stroke-width="1" fill="none" fill-rule="evenodd">
        <g id="Desktop" transform="translate(-282.000000, -860.000000)" fill="#FFFFFF">
            <g id="Features" transform="translate(194.000000, 858.000000)">
                <g id="charity" transform="translate(88.000000, 2.000000)">
                    <g id="Capa_1">
                        <g id="Group">
                            <path d="M61.3598684,48.549356 L36.1132105,52.9143811 L28.9422533,45.7853041 C28.7041974,45.5473729 28.3808487,45.4144858 28.0422237,45.4144858 L15.3119605,45.4144858 C15.3119605,44.7146137 14.7429178,44.1488943 14.0389342,44.1488943 L8.94682895,44.1488943 L0.0356447368,44.1488943 L0.0356447368,46.6800773 L7.67380263,46.6800773 L7.67380263,64.3983585 L0.0356447368,64.3983585 L0.0356447368,66.9295415 L8.94682895,66.9295415 L14.0389342,66.9295415 C14.7429178,66.9295415 15.3119605,66.3638221 15.3119605,65.66395 L18.8306053,65.66395 L32.4405296,72.4298022 C33.0286678,72.7221539 33.6664539,72.8689625 34.3016941,72.8689625 C35.0260461,72.8689625 35.749125,72.6803893 36.3970954,72.3045087 L64.1694375,56.1973255 C65.4424638,55.4594856 66.2330132,54.0913812 66.2330132,52.6258262 C66.2330132,51.4019993 65.691977,50.2477798 64.7499375,49.4593163 C63.8104441,48.6708528 62.5692434,48.3405334 61.3598684,48.549356 L61.3598684,48.549356 Z M12.7659079,64.3983585 L10.2198553,64.3983585 L10.2198553,46.6800773 L12.7659079,46.6800773 L12.7659079,64.3983585 L12.7659079,64.3983585 Z M62.886227,54.0103834 L35.1151579,70.1175665 C34.6441382,70.3909343 34.0700033,70.4086526 33.5798882,70.165659 L19.7013553,63.2669197 C19.5244046,63.1783283 19.3283586,63.132767 19.1310395,63.132767 L15.3119605,63.132767 L15.3119605,47.9456688 L27.5151908,47.9456688 L37.5453651,57.9172644 C37.9781941,58.3475655 38.2264342,58.9436591 38.2264342,59.5536742 C38.2264342,60.8293904 37.1825526,61.8671755 35.8993421,61.8671755 C35.2870164,61.8671755 34.686148,61.6203851 34.2533191,61.190084 L27.669227,54.6444447 L25.8691678,56.4339911 L32.4532599,62.9796304 C33.3736579,63.8946531 34.5970362,64.3983585 35.8993421,64.3983585 C38.5854276,64.3983585 40.7724868,62.2240723 40.7724868,59.5536742 C40.7724868,58.2602397 40.2658224,57.0427406 39.3454243,56.127718 L38.314273,55.1025888 L61.7939704,51.0425713 C62.2662632,50.9577766 62.7449211,51.0893982 63.1102796,51.3956713 C63.4769112,51.7019444 63.6869605,52.1499638 63.6869605,52.6245607 C63.6869605,53.1928112 63.3801612,53.7243597 62.886227,54.0103834 L62.886227,54.0103834 Z" id="Shape"></path>
                            <path d="M71.3251184,8.71233197 L71.3251184,6.18114894 L63.3292401,6.18114894 C63.0975493,5.94195215 62.7754737,6.18114894 62.4139342,6.18114894 L57.3218289,6.18114894 C56.6178454,6.18114894 56.0488026,6.18114894 56.0488026,7.44674046 L52.5301579,7.44674046 L38.9189605,0.485987141 C37.6573914,-0.141746249 36.1781349,-0.191104318 34.9636678,0.513830154 L7.19132566,16.5716553 C5.91829934,17.3094951 5.12775,18.6535533 5.12775,20.1191083 C5.12775,21.3429353 5.66878618,22.4832332 6.60955263,23.2716967 C7.36700329,23.9044925 8.31286184,24.237343 9.28545395,24.237343 C9.52478289,24.237343 9.76283882,24.2132968 10.0008947,24.1727979 L35.2462796,19.8065072 L42.4172368,27.1304852 C42.6565658,27.3671509 42.9799145,27.6962046 43.3185395,27.6962046 L56.0488026,27.6962046 C56.0488026,27.6962046 56.6178454,28.9617962 57.3218289,28.9617962 L61.4986283,28.9617962 L62.4139342,28.9617962 L71.3251184,28.9617962 L71.3251184,26.4306131 L63.6869605,26.4306131 L63.6869605,8.71233197 L71.3251184,8.71233197 L71.3251184,8.71233197 Z M43.8455724,25.1650216 L33.8166711,14.9997906 C33.3762039,14.5618959 33.1343289,13.8822733 33.1343289,13.2646646 C33.1343289,11.9876828 34.1782105,10.9005397 35.4614211,10.9005397 C36.0826579,10.9005397 36.666977,11.1169558 37.1074441,11.5548505 L43.6915362,18.0865683 L45.4915954,16.2906939 L38.9087763,9.74505464 C37.9883783,8.8275008 36.763727,8.32252978 35.4614211,8.32252978 C32.7753355,8.32252978 30.5882763,10.4955504 30.5882763,13.1672141 C30.5882763,14.459383 31.0936678,15.6756165 32.0153388,16.5931703 L33.0452171,17.6170338 L9.56551974,21.6770514 C9.08940789,21.7593149 8.61456908,21.6289589 8.2479375,21.3239514 C7.88385197,21.0176782 7.67380263,20.5696588 7.67380263,20.095062 C7.67380263,19.5255458 7.98060197,18.9939974 8.47453618,18.7079737 L36.2456053,2.60205615 C36.716625,2.32995397 37.2907599,2.3109701 37.780875,2.55396367 L51.6594079,9.64886969 C51.8363586,9.7361955 52.0324046,9.97792348 52.2297237,9.97792348 L56.0488026,9.97792348 L56.0488026,25.1650216 L43.8455724,25.1650216 L43.8455724,25.1650216 Z M58.5948553,8.71233197 L61.1409079,8.71233197 L61.1409079,26.4306131 L58.5948553,26.4306131 L58.5948553,8.71233197 L58.5948553,8.71233197 Z" id="Shape"></path>
                            <path d="M35.6803816,30.2881361 C33.6066217,28.4834026 30.3654967,28.5302295 28.3515691,30.4349447 C27.330602,31.4018566 26.7691974,32.6902288 26.7691974,34.0659267 C26.7691974,35.4403591 27.330602,36.7287313 28.3515691,37.6943776 L34.8019934,43.799591 C35.0489605,44.0324599 35.3646711,44.1488943 35.6803816,44.1488943 C35.9960921,44.1488943 36.3118026,44.0324599 36.5574967,43.8008566 L43.0079211,37.6956432 C44.0301612,36.7287313 44.5915658,35.4403591 44.5915658,34.0659267 C44.5915658,32.6902288 44.0301612,31.4018566 43.0091941,30.4349447 L43.0091941,30.4336791 C40.9939934,28.5289639 37.7528684,28.4846682 35.6803816,30.2881361 L35.6803816,30.2881361 Z M41.2536908,35.8605355 L35.6803816,41.1355209 L30.1070724,35.8605355 C29.5978618,35.3770795 29.31525,34.7392214 29.31525,34.0646611 C29.31525,33.3901009 29.5965888,32.7509771 30.1070724,32.2675212 C30.6557467,31.7486287 31.3762796,31.4891824 32.0955395,31.4891824 C32.8160724,31.4891824 33.5366053,31.7486287 34.0840066,32.2675212 L34.8007204,32.9458782 C35.2933816,33.4103503 36.0635625,33.4103503 36.5562237,32.9458782 L37.2729375,32.2675212 C38.3690132,31.2297361 40.152523,31.2310017 41.2511447,32.2662556 C41.7641743,32.7509771 42.0455132,33.3901009 42.0455132,34.0646611 C42.0455132,34.7392214 41.7629013,35.3770795 41.2536908,35.8605355 L41.2536908,35.8605355 Z" id="Shape"></path>
                            <path d="M20.9081842,26.6394357 L18.7975066,25.2232388 C18.2908421,25.9699378 17.8300066,26.7546046 17.4315493,27.5531928 L19.7115395,28.6808348 C20.0590757,27.9809627 20.462625,27.2950121 20.9081842,26.6394357 L20.9081842,26.6394357 Z" id="Shape"></path>
                            <path d="M15.7384243,40.7001574 C15.9242862,41.5835403 16.1699803,42.4593296 16.4691414,43.2984168 L18.8687961,42.4555329 C18.6078257,41.7214898 18.3926842,40.9558069 18.2297368,40.1812649 L15.7384243,40.7001574 L15.7384243,40.7001574 Z" id="Shape"></path>
                            <path d="M15.6900493,32.6547922 L18.189,33.1395137 C18.3404901,32.3675029 18.5454474,31.6005545 18.7987796,30.8589178 L16.3863947,30.0451425 C16.0974178,30.8930888 15.8644539,31.7714093 15.6900493,32.6547922 L15.6900493,32.6547922 Z" id="Shape"></path>
                            <path d="M15.3119605,36.559142 C15.3132336,37.0514571 15.3310559,37.5399754 15.3654276,38.024697 L17.9038421,37.8462486 C17.8745625,37.4197442 17.8592862,36.9869119 17.8580132,36.5553452 C17.8580132,36.1959172 17.8681974,35.8390204 17.8898388,35.4833892 L15.3488783,35.3277215 C15.3246908,35.7352419 15.3119605,36.144028 15.3119605,36.559142 L15.3119605,36.559142 Z" id="Shape"></path>
                            <path d="M52.4894211,30.6500952 C52.7542105,31.3955286 52.9680789,32.1599459 53.1272072,32.9230976 L55.6210658,32.4092674 C55.43775,31.5360093 55.1920559,30.6614856 54.8916217,29.8097425 L52.4894211,30.6500952 L52.4894211,30.6500952 Z" id="Shape"></path>
                            <path d="M50.453852,46.4661924 L52.5619836,47.8849204 C53.068648,47.139487 53.5307566,46.3560859 53.9304868,45.5537009 L51.6504967,44.4260588 C51.3016875,45.1284621 50.8981382,45.8144127 50.453852,46.4661924 L50.453852,46.4661924 Z" id="Shape"></path>
                            <path d="M52.5632566,42.2492414 L54.9756414,43.0630168 C55.2658914,42.2150705 55.4988553,41.3380156 55.6732599,40.4533671 L53.1743092,39.9686455 C53.0215461,40.741922 52.8165888,41.5076048 52.5632566,42.2492414 L52.5632566,42.2492414 Z" id="Shape"></path>
                            <path d="M56.0488026,36.559142 C56.0500757,36.0617645 56.0309803,35.5681839 55.9953355,35.0783999 L53.4569211,35.2631763 C53.4874737,35.688415 53.504023,36.1187162 53.50275,36.5553452 C53.50275,36.9135076 53.4925658,37.2691388 53.4709243,37.6235045 L56.0118849,37.7791722 C56.0360724,37.3729173 56.0488026,36.9653969 56.0488026,36.559142 L56.0488026,36.559142 Z" id="Shape"></path>
                        </g>
                    </g>
                </g>
            </g>
        </g>
    </g>
</svg>