<?xml version="1.0" encoding="UTF-8"?>
<svg width="59px" height="75px" viewBox="0 0 59 75" version="1.1" xmlns="http://www.w3.org/2000/svg" xmlns:xlink="http://www.w3.org/1999/xlink">
    <!-- Generator: Sketch 46 (44423) - http://www.bohemiancoding.com/sketch -->
    <title>boxing</title>
    <desc>Created with Sketch.</desc>
    <defs></defs>
    <g id="Homepage" stroke="none" stroke-width="1" fill="none" fill-rule="evenodd">
        <g id="Desktop" transform="translate(-1243.000000, -858.000000)" fill="#FFFFFF">
            <g id="Features" transform="translate(194.000000, 858.000000)">
                <g id="boxing" transform="translate(1049.000000, 0.000000)">
                    <g id="Capa_1">
                        <g id="Group">
                            <path d="M53.279125,2.89133117 C50.7329094,1.00002922 47.5663431,0 44.1206851,0 L22.8475498,0 C22.2060357,0 21.5830396,0.0795779221 20.9944339,0.23475487 C18.4640908,0.901883117 10.2077388,3.83432955 10.2130296,13.6423084 L10.5291571,17.1742419 C6.37452691,17.0986429 3.41959411,17.8798328 1.75959381,19.5244432 C0.715976094,20.5576299 0.202764846,21.9343279 0.275513863,23.5086445 L0.275513863,33.625651 C0.275513863,34.9705179 0.766239051,36.2623328 1.64716351,37.2570568 L13.8279944,51.2694026 C13.8742892,51.3237808 13.9404247,51.3476542 13.9933331,51.3927484 C14.0383052,51.4298847 14.0634367,51.484263 14.1136996,51.5160942 C14.1533809,51.5412938 14.4007276,51.6964708 14.8253173,51.9272468 L14.8253173,67.6412338 C14.8253173,68.1001331 15.0620823,68.525875 15.4496361,68.7685877 C15.6308473,68.8813231 19.9508162,71.5418782 26.4559011,72.9185763 L26.4572238,72.9185763 C29.5867542,73.7170081 31.9649857,74.1175503 34.4199344,74.1175503 C36.8775284,74.1175503 39.4171305,73.7170081 42.8733701,72.9185763 C50.1099133,71.6877711 53.8425992,68.8083766 53.9973562,68.6850308 C54.3174519,68.4343604 54.5039539,68.0497338 54.5039539,67.6412338 L54.5039539,51.9484675 C54.9576432,51.6911656 55.2155716,51.5187468 55.2539301,51.4908945 C55.5846075,51.2627711 55.7935956,50.8967127 55.8226952,50.4935179 L58.4707594,13.5242679 C58.4734048,9.0931039 56.6771655,5.4166039 53.279125,2.89133117 L53.279125,2.89133117 Z M2.91960996,33.6269773 L2.91960996,23.4781396 C2.91960996,23.4542662 2.91960996,23.4330455 2.91828725,23.4091721 C2.87463784,22.5629935 3.09685302,21.9290227 3.61800052,21.4130925 C4.66294095,20.3785795 6.95651905,19.8188815 10.0424001,19.8188815 C10.2791651,19.8188815 10.5198982,19.8228604 10.7659221,19.8294919 L13.0436277,45.330237 L13.1428309,46.4469805 L3.63122762,35.5063425 C3.17224745,34.9877597 2.91960996,34.3206315 2.91960996,33.6269773 L2.91960996,33.6269773 Z M17.4694134,53.1752938 C18.4085371,53.5625731 19.5460671,53.9777045 20.8542267,54.3755942 C20.8634857,54.3782468 20.8727447,54.3808994 20.8820036,54.3835519 C21.1743224,54.472414 21.4759002,54.5599497 21.7854142,54.6461591 C21.8647767,54.6687062 21.9441393,54.6899269 22.0235018,54.712474 C22.2893664,54.7854205 22.5605219,54.8557143 22.8382908,54.9260081 C22.978498,54.9618182 23.1226734,54.9963019 23.265526,55.0307857 C23.5049364,55.0878166 23.7443468,55.1448474 23.9930161,55.2005519 C24.1953907,55.2456461 24.4057015,55.2880877 24.6133669,55.3318555 C24.8250004,55.3756234 25.0339884,55.4207175 25.2522355,55.4618328 C25.3038212,55.4711169 25.3514387,55.4830536 25.4043471,55.4923377 L25.4043471,69.9463409 C21.544681,68.9436591 18.6744016,67.5245195 17.4680907,66.8693279 L17.4680907,53.1752938 L17.4694134,53.1752938 L17.4694134,53.1752938 Z M28.0510886,70.581638 L28.0590248,47.0703409 C28.0590248,46.6631672 28.1053197,46.2652776 28.1926185,45.880651 C28.1939412,45.8766721 28.1939412,45.8713669 28.1952639,45.867388 C28.4492241,44.7559497 29.0563477,43.7652045 29.8936228,42.9734042 C30.1026109,42.777112 30.3327623,42.6060195 30.5642365,42.4375795 C30.6793122,42.3540227 30.7838062,42.2598555 30.9041728,42.1842565 C31.2150095,41.9892906 31.5470095,41.8288084 31.8869459,41.6842419 C31.9517586,41.6577159 32.0073124,41.6179269 32.0734479,41.5927273 C32.4887786,41.4322451 32.92395,41.3115519 33.3710258,41.231974 C33.4847788,41.2120795 33.6064681,41.2147321 33.7215438,41.2001429 C34.0561893,41.156375 34.3921575,41.1192386 34.7373846,41.1218912 C34.8828826,41.1232175 35.0204444,41.1523961 35.163297,41.1630065 C38.4555207,41.4415292 41.2755372,44.5516997 41.2755372,48.0451705 L41.2755372,54.3782468 L41.2755372,70.5590909 C35.823329,71.7527597 32.9768584,71.7607175 28.0510886,70.581638 L28.0510886,70.581638 Z M51.8598578,66.9422744 C50.8083038,67.6107289 48.1390763,69.0935308 43.9236014,70.0139821 L43.9236014,55.5016218 C43.9870915,55.4896851 44.0452907,55.4777484 44.107458,55.4658117 C44.3138007,55.427349 44.5108844,55.3875601 44.7119362,55.3477711 C44.9407649,55.3026769 45.1695937,55.2562565 45.3918088,55.2085097 C45.6312192,55.1567841 45.8626934,55.1037321 46.0928448,55.0506802 C46.2502472,55.0135438 46.4050042,54.9777338 46.5584385,54.9392711 C46.829594,54.8729562 47.0941358,54.8053149 47.3520642,54.7363474 C47.4353949,54.7138003 47.5174029,54.6912532 47.5994108,54.6687062 C49.3017378,54.2031753 50.7249732,53.6965292 51.8598578,53.2243669 L51.8598578,66.9422744 L51.8598578,66.9422744 Z M53.2341529,49.6234659 C53.0622007,49.721612 52.8360174,49.8423052 52.5794117,49.9749351 L52.5794117,49.9749351 C51.6032522,50.476276 49.9167977,51.2335925 47.5517933,51.9272468 C47.5240164,51.9352045 47.5002076,51.9444886 47.4724307,51.9524464 C47.1563032,52.043961 46.811076,52.1328231 46.4711397,52.2216851 C46.2700879,52.2734107 46.0809404,52.327789 45.8719524,52.3795146 C45.6021196,52.4458295 45.3098009,52.505513 45.0254183,52.567849 C44.7172271,52.6354903 44.4143266,52.7057841 44.0902628,52.7681201 C44.0373544,52.7787305 43.9778325,52.7866883 43.9236014,52.7972987 L43.9236014,48.0464968 L43.9236014,47.2241916 C43.9236014,42.5582727 40.0454174,38.7438377 35.1804923,38.487862 C35.0773209,38.4812305 34.9754723,38.4666412 34.8709783,38.4639886 C34.8021974,38.4626623 34.7334165,38.4626623 34.6646356,38.4626623 L34.6646356,38.4626623 L34.6646356,38.4626623 C33.037703,38.4626623 31.5099737,38.8592256 30.179328,39.5475747 C30.138324,39.5687955 30.0999655,39.5939951 30.0602842,39.6152159 C29.8420371,39.7319302 29.6277582,39.8539497 29.4200928,39.9865795 C29.3155988,40.0528945 29.2163956,40.1284935 29.1145469,40.1987873 C28.9796306,40.2929545 28.8447142,40.3857955 28.7164114,40.4865942 C28.5788496,40.5940244 28.4479014,40.7107386 28.3156305,40.8248003 C28.2336225,40.8977468 28.1489691,40.9680406 28.0696065,41.0436396 C28.0233117,41.0874075 27.971726,41.1258701 27.9267539,41.169638 C27.8063874,41.2876786 27.6979252,41.4150032 27.5854949,41.538349 C27.5603634,41.5662013 27.5339092,41.5927273 27.5087777,41.6205795 C27.330212,41.8221769 27.1622279,42.0317321 27.0061482,42.2465925 C27.00218,42.2518977 26.9968892,42.2585292 26.9929211,42.2638344 C26.660921,42.7200812 26.3791839,43.2015276 26.1503552,43.7055211 C26.1477098,43.7121526 26.1437416,43.7187841 26.1410962,43.7254156 C26.0339568,43.9641494 25.937399,44.206862 25.8540683,44.4535536 C25.846132,44.4774269 25.8355503,44.5013003 25.8276141,44.5265 C25.7522196,44.7546234 25.6900523,44.9880519 25.6344985,45.2228068 C25.6239168,45.267901 25.609367,45.3129951 25.6001081,45.3580893 C25.5524905,45.5809075 25.5181001,45.8077045 25.4890005,46.0358279 C25.4810642,46.0941851 25.4691598,46.1498896 25.4625463,46.2082468 C25.432124,46.4920747 25.4162515,46.7785552 25.4162515,47.0676883 L25.4096379,52.7827094 C25.359375,52.772099 25.3038212,52.7641412 25.2535582,52.7535308 C24.9321398,52.6872159 24.6305621,52.6155958 24.3236935,52.5453019 C24.0670879,52.4869448 23.7999006,52.429914 23.5538766,52.3675779 C23.1993905,52.2787159 22.8687132,52.185875 22.5367131,52.0930341 C22.3647609,52.0452873 22.182227,51.9988669 22.0155656,51.9511201 C21.5380675,51.8105325 21.0830555,51.6686185 20.6558203,51.5240519 C20.6492068,51.5213994 20.6412705,51.5200731 20.634657,51.5174205 C18.3913418,50.7640828 16.8437718,50.001461 16.0818912,49.5903084 L13.2989106,18.4368782 C13.2975879,18.4289205 13.2936198,18.422289 13.2922971,18.4143312 L12.8544803,13.5229416 C12.8544803,5.94181818 19.0196288,3.49612338 21.6690157,2.79716396 C22.0367289,2.70167045 22.4335418,2.6525974 22.8475498,2.6525974 L44.1206851,2.6525974 C46.9539286,2.6525974 49.646965,3.49479708 51.7051008,5.02269318 C54.4404639,7.05590909 55.827986,9.91540909 55.8319542,13.4301006 L53.2341529,49.6234659 L53.2341529,49.6234659 Z" id="Shape"></path>
                            <path d="M39.5679194,45.4827614 C39.05074,44.9641786 38.2147876,44.9641786 37.6976083,45.4827614 L34.6646356,48.5239643 L31.6316629,45.4827614 C31.1144836,44.9641786 30.2785312,44.9641786 29.7613518,45.4827614 C29.2441725,46.0013442 29.2441725,46.8395649 29.7613518,47.3581477 L32.7943245,50.3993506 L29.7613518,53.4405536 C29.2441725,53.9591364 29.2441725,54.7973571 29.7613518,55.3159399 C30.0192802,55.5745682 30.3578938,55.7045455 30.6965074,55.7045455 C31.035121,55.7045455 31.3737346,55.5745682 31.6316629,55.3159399 L34.6646356,52.274737 L37.6976083,55.3159399 C37.9555366,55.5745682 38.2941502,55.7045455 38.6327638,55.7045455 C38.9713774,55.7045455 39.309991,55.5745682 39.5679194,55.3159399 C40.0850987,54.7973571 40.0850987,53.9591364 39.5679194,53.4405536 L36.5349467,50.3993506 L39.5679194,47.3581477 C40.0850987,46.8395649 40.0850987,46.0013442 39.5679194,45.4827614 L39.5679194,45.4827614 Z" id="Shape"></path>
                            <path d="M39.5679194,58.7457484 C39.05074,58.2271656 38.2147876,58.2271656 37.6976083,58.7457484 L34.6646356,61.7869513 L31.6316629,58.7457484 C31.1144836,58.2271656 30.2785312,58.2271656 29.7613518,58.7457484 C29.2441725,59.2643312 29.2441725,60.1025519 29.7613518,60.6211347 L32.7943245,63.6623377 L29.7613518,66.7035406 C29.2441725,67.2221234 29.2441725,68.0603442 29.7613518,68.5789269 C30.0192802,68.8375552 30.3578938,68.9675325 30.6965074,68.9675325 C31.035121,68.9675325 31.3737346,68.8375552 31.6316629,68.5789269 L34.6646356,65.537724 L37.6976083,68.5789269 C37.9555366,68.8375552 38.2941502,68.9675325 38.6327638,68.9675325 C38.9713774,68.9675325 39.309991,68.8375552 39.5679194,68.5789269 C40.0850987,68.0603442 40.0850987,67.2221234 39.5679194,66.7035406 L36.5349467,63.6623377 L39.5679194,60.6211347 C40.0850987,60.1025519 40.0850987,59.2643312 39.5679194,58.7457484 L39.5679194,58.7457484 Z" id="Shape"></path>
                            <path d="M37.3100544,6.63149351 C36.5799188,6.63149351 35.987345,7.22434903 35.987345,7.95779221 C35.987345,8.69123539 36.5799188,9.28409091 37.3100544,9.28409091 C43.8733385,9.28409091 49.214439,14.6383588 49.214439,21.2207792 C49.214439,21.9542224 49.8070128,22.5470779 50.5371484,22.5470779 C51.267284,22.5470779 51.8598578,21.9542224 51.8598578,21.2207792 C51.8598578,13.1767776 45.3322869,6.63149351 37.3100544,6.63149351 L37.3100544,6.63149351 Z" id="Shape"></path>
                        </g>
                    </g>
                </g>
            </g>
        </g>
    </g>
</svg>