<?xml version="1.0" encoding="UTF-8"?>
<svg width="185px" height="24px" viewBox="0 0 185 24" version="1.1" xmlns="http://www.w3.org/2000/svg" xmlns:xlink="http://www.w3.org/1999/xlink">
    <!-- Generator: Sketch 46.1 (44463) - http://www.bohemiancoding.com/sketch -->
    <title>Logo</title>
    <desc>Created with Sketch.</desc>
    <defs></defs>
    <g id="Homepage" stroke="none" stroke-width="1" fill="none" fill-rule="evenodd">
        <g id="Desktop" transform="translate(-708.000000, -21.000000)" fill="#FFFFFF">
            <path d="M713.010999,42.372 C710.001651,40.1519889 708.496999,37.1796853 708.496999,33.455 L708.496999,32.937 C708.496999,29.2123147 710.001651,26.2400111 713.010999,24.02 C714.811675,22.6879933 716.834322,22.022 719.078999,22.022 C721.323677,22.022 723.346324,22.6756601 725.146999,23.983 L722.001999,28.349 C721.163329,27.7323303 720.213671,27.424 719.152999,27.424 C718.092327,27.424 717.14267,27.7323303 716.303999,28.349 C714.675991,29.4836723 713.861999,31.0376568 713.861999,33.011 L713.861999,33.381 C713.861999,35.3543432 714.675991,36.9083277 716.303999,38.043 C717.14267,38.6596697 718.092327,38.968 719.152999,38.968 C720.213671,38.968 721.163329,38.6596697 722.001999,38.043 L725.146999,42.409 C723.346324,43.7163399 721.323677,44.37 719.078999,44.37 C716.834322,44.37 714.811675,43.7040067 713.010999,42.372 Z M748.98,29.607 C749.202001,30.667672 749.313,31.728328 749.313,32.789 C749.313,34.2196738 749.140335,35.5269941 748.795,36.711 C748.030329,39.4243469 746.414679,41.5209926 743.948,43.001 C742.393992,43.9136712 740.716675,44.37 738.916,44.37 L738.509,44.37 C736.239655,44.37 734.186175,43.6485072 732.3485,42.2055 C730.510824,40.7624928 729.271336,38.9310111 728.63,36.711 C728.284665,35.5269941 728.112,34.2196738 728.112,32.789 C728.112,31.728328 728.222998,30.667672 728.445,29.607 C729.308337,26.8936531 730.997987,24.8093406 733.514,23.354 C735.092674,22.416662 736.757657,21.948 738.509,21.948 L738.916,21.948 C740.667342,21.948 742.344658,22.416662 743.948,23.354 C746.439345,24.8093406 748.116662,26.8936531 748.98,29.607 Z M743.578,35.342 C743.800001,34.7006635 743.911,33.9730041 743.911,33.159 C743.911,32.3449959 743.800001,31.6173365 743.578,30.976 C743.158664,29.7673273 742.344672,28.7930037 741.136,28.053 C740.420663,27.584331 739.656004,27.35 738.842,27.35 L738.583,27.35 C737.768996,27.35 737.004336,27.584331 736.289,28.053 C735.104994,28.7930037 734.291002,29.7673273 733.847,30.976 C733.624998,31.6173365 733.514,32.3449959 733.514,33.159 C733.514,33.9730041 733.624998,34.7006635 733.847,35.342 C734.291002,36.5506727 735.104994,37.5373295 736.289,38.302 C737.004336,38.770669 737.768996,39.005 738.583,39.005 L738.842,39.005 C739.656004,39.005 740.420663,38.770669 741.136,38.302 C742.344672,37.5373295 743.158664,36.5506727 743.578,35.342 Z M753.018,44 L758.42,44 L758.42,30.495 C758.42,29.6809959 758.70983,28.9841696 759.2895,28.4045 C759.869169,27.8248304 760.565996,27.535 761.38,27.535 C762.194004,27.535 762.89083,27.8248304 763.4705,28.4045 C764.050169,28.9841696 764.34,29.6809959 764.34,30.495 L764.34,44 L769.742,44 L769.742,30.495 C769.742,29.6809959 770.03183,28.9841696 770.6115,28.4045 C771.191169,27.8248304 771.887996,27.535 772.702,27.535 C773.516004,27.535 774.21283,27.8248304 774.7925,28.4045 C775.372169,28.9841696 775.662,29.6809959 775.662,30.495 L775.662,44 L781.064,44 L781.064,29.015 C781.064,27.0909904 780.379507,25.4506735 779.0105,24.094 C777.641493,22.7373265 775.995009,22.059 774.071,22.059 C771.653654,22.059 769.742007,23.0456568 768.336,25.019 C766.855992,23.0703236 764.895012,22.096 762.453,22.096 C760.972992,22.096 759.628672,22.4906627 758.42,23.28 L758.42,22.392 L753.018,22.392 L753.018,44 Z M785.62,44 L791.022,44 L791.022,30.495 C791.022,29.6809959 791.31183,28.9841696 791.8915,28.4045 C792.471169,27.8248304 793.167996,27.535 793.982,27.535 C794.796004,27.535 795.49283,27.8248304 796.0725,28.4045 C796.652169,28.9841696 796.942,29.6809959 796.942,30.495 L796.942,44 L802.344,44 L802.344,30.495 C802.344,29.6809959 802.63383,28.9841696 803.2135,28.4045 C803.793169,27.8248304 804.489996,27.535 805.304,27.535 C806.118004,27.535 806.81483,27.8248304 807.3945,28.4045 C807.974169,28.9841696 808.264,29.6809959 808.264,30.495 L808.264,44 L813.666,44 L813.666,29.015 C813.666,27.0909904 812.981507,25.4506735 811.6125,24.094 C810.243493,22.7373265 808.597009,22.059 806.673,22.059 C804.255654,22.059 802.344007,23.0456568 800.938,25.019 C799.457992,23.0703236 797.497012,22.096 795.055,22.096 C793.574992,22.096 792.230673,22.4906627 791.022,23.28 L791.022,22.392 L785.62,22.392 L785.62,44 Z M838.239,29.607 C838.461001,30.667672 838.572,31.728328 838.572,32.789 C838.572,34.2196738 838.399335,35.5269941 838.054,36.711 C837.28933,39.4243469 835.673679,41.5209926 833.207,43.001 C831.652992,43.9136712 829.975676,44.37 828.175,44.37 L827.768,44.37 C825.498655,44.37 823.445176,43.6485072 821.6075,42.2055 C819.769824,40.7624928 818.530337,38.9310111 817.889,36.711 C817.543665,35.5269941 817.371,34.2196738 817.371,32.789 C817.371,31.728328 817.481999,30.667672 817.704,29.607 C818.567338,26.8936531 820.256987,24.8093406 822.773,23.354 C824.351675,22.416662 826.016658,21.948 827.768,21.948 L828.175,21.948 C829.926342,21.948 831.603659,22.416662 833.207,23.354 C835.698346,24.8093406 837.375662,26.8936531 838.239,29.607 Z M832.837,35.342 C833.059001,34.7006635 833.17,33.9730041 833.17,33.159 C833.17,32.3449959 833.059001,31.6173365 832.837,30.976 C832.417665,29.7673273 831.603673,28.7930037 830.395,28.053 C829.679663,27.584331 828.915004,27.35 828.101,27.35 L827.842,27.35 C827.027996,27.35 826.263337,27.584331 825.548,28.053 C824.363994,28.7930037 823.550002,29.7673273 823.106,30.976 C822.883999,31.6173365 822.773,32.3449959 822.773,33.159 C822.773,33.9730041 822.883999,34.7006635 823.106,35.342 C823.550002,36.5506727 824.363994,37.5373295 825.548,38.302 C826.263337,38.770669 827.027996,39.005 827.842,39.005 L828.101,39.005 C828.915004,39.005 829.679663,38.770669 830.395,38.302 C831.603673,37.5373295 832.417665,36.5506727 832.837,35.342 Z M842.092,44 L847.494,44 L847.494,30.939 C847.494,30.001662 847.826997,29.2000033 848.493,28.534 C849.159003,27.8679967 849.960662,27.535 850.898,27.535 C851.835338,27.535 852.636997,27.8679967 853.303,28.534 C853.969003,29.2000033 854.302,30.001662 854.302,30.939 L854.302,44 L859.704,44 L859.704,29.792 C859.704,27.6706561 858.933175,25.8638408 857.3915,24.3715 C855.849826,22.8791592 854.006011,22.133 851.86,22.133 C850.281326,22.133 848.826007,22.5769956 847.494,23.465 L847.494,22.392 L842.092,22.392 L842.092,44 Z M866.11,36.859 C867.639341,37.8950052 869.328991,38.5363321 871.179,38.783 C871.647669,38.8323336 872.079332,38.857 872.474,38.857 C873.214004,38.857 873.941663,38.7706675 874.657,38.598 C875.101003,38.4993328 875.458666,38.2650018 875.73,37.895 C875.878001,37.6976657 875.952,37.4510015 875.952,37.155 C875.952,36.5136635 875.64367,36.1190007 875.027,35.971 L867.701,34.232 C866.442994,33.9359985 865.425504,33.2453388 864.6485,32.16 C863.871496,31.0746612 863.483,29.8660067 863.483,28.534 C863.483,27.3499941 863.815997,26.258505 864.482,25.2595 C865.148004,24.260495 866.035995,23.526669 867.146,23.058 C868.37934,22.5646642 869.661994,22.2686672 870.994,22.17 C871.512003,22.1206664 872.017664,22.096 872.511,22.096 C875.81635,22.096 878.81332,23.0579904 881.502,24.982 L878.505,29.348 C876.605657,28.1393273 874.533678,27.535 872.289,27.535 C871.943665,27.535 871.573669,27.5596664 871.179,27.609 C870.636331,27.609 870.118336,27.7199989 869.625,27.942 C869.254998,28.1393343 869.07,28.4476646 869.07,28.867 C869.07,29.3603358 869.304331,29.6933325 869.773,29.866 C869.921001,29.9153336 870.093666,29.9769996 870.291,30.051 L877.136,31.605 C878.492674,31.9256683 879.596496,32.6471611 880.4475,33.7695 C881.298505,34.8918389 881.724,36.155993 881.724,37.562 C881.724,39.1900081 881.181339,40.5836609 880.096,41.743 C878.739327,43.0996734 877.111343,43.8643325 875.212,44.037 C874.225329,44.160334 873.263338,44.222 872.326,44.222 C871.388662,44.222 870.426672,44.160334 869.44,44.037 C867.121322,43.7409985 865.024676,42.8653406 863.15,41.41 L866.11,36.859 Z M892.237,40.411 C892.237,39.4489952 891.897837,38.6288367 891.2195,37.9505 C890.541164,37.2721633 889.721005,36.933 888.759,36.933 C887.796996,36.933 886.976837,37.2721633 886.2985,37.9505 C885.620164,38.6288367 885.281,39.4489952 885.281,40.411 C885.281,41.3730048 885.620164,42.1931633 886.2985,42.8715 C886.976837,43.5498367 887.796996,43.889 888.759,43.889 C889.721005,43.889 890.541164,43.5498367 891.2195,42.8715 C891.897837,42.1931633 892.237,41.3730048 892.237,40.411 Z" id="Logo"></path>
        </g>
    </g>
</svg>