<?xml version="1.0" encoding="UTF-8"?>
<svg width="158px" height="20px" viewBox="0 0 158 20" version="1.1" xmlns="http://www.w3.org/2000/svg" xmlns:xlink="http://www.w3.org/1999/xlink">
    <!-- Generator: Sketch 47 (45396) - http://www.bohemiancoding.com/sketch -->
    <title>logo</title>
    <desc>Created with Sketch.</desc>
    <defs></defs>
    <g id="Homepage" stroke="none" stroke-width="1" fill="none" fill-rule="evenodd">
        <g id="Desktop" transform="translate(-546.000000, -33.000000)" fill="#FFFFFF">
            <g id="logo" transform="translate(546.000000, 33.000000)">
                <path d="M3.904,17.664 C1.30132032,15.7439904 0,13.1733494 0,9.952 L0,9.504 C0,6.28265056 1.30132032,3.7120096 3.904,1.792 C5.46134112,0.63999424 7.21065696,0.064 9.152,0.064 C11.093343,0.064 12.8426589,0.62932768 14.4,1.76 L11.68,5.536 C10.954663,5.002664 10.1333379,4.736 9.216,4.736 C8.29866208,4.736 7.47733696,5.002664 6.752,5.536 C5.34399296,6.51733824 4.64,7.8613248 4.64,9.568 L4.64,9.888 C4.64,11.5946752 5.34399296,12.9386618 6.752,13.92 C7.47733696,14.453336 8.29866208,14.72 9.216,14.72 C10.1333379,14.72 10.954663,14.453336 11.68,13.92 L14.4,17.696 C12.8426589,18.8266723 11.093343,19.392 9.152,19.392 C7.21065696,19.392 5.46134112,18.8160058 3.904,17.664 Z M34.6880001,6.624 C34.8800011,7.54133792 34.9760001,8.45866208 34.9760001,9.376 C34.9760001,10.6133395 34.8266683,11.7439949 34.5280001,12.768 C33.8666635,15.1146784 32.4693441,16.9279936 30.3360001,18.208 C28.9919934,18.9973373 27.5413413,19.392 25.9840001,19.392 L25.6320001,19.392 C23.6693237,19.392 21.8933414,18.7680062 20.3040001,17.52 C18.7146589,16.2719938 17.6426696,14.6880096 17.0880001,12.768 C16.789332,11.7439949 16.6400001,10.6133395 16.6400001,9.376 C16.6400001,8.45866208 16.7359992,7.54133792 16.9280001,6.624 C17.6746705,4.2773216 19.1359893,2.47467296 21.3120001,1.216 C22.6773403,0.40532928 24.1173259,0 25.6320001,0 L25.9840001,0 C27.4986744,0 28.9493265,0.40532928 30.3360001,1.216 C32.4906776,2.47467296 33.9413297,4.2773216 34.6880001,6.624 Z M30.0160001,11.584 C30.2080011,11.0293306 30.3040001,10.4000035 30.3040001,9.696 C30.3040001,8.99199648 30.2080011,8.36266944 30.0160001,7.808 C29.6533317,6.76266144 28.9493387,5.9200032 27.9040001,5.28 C27.2853304,4.87466464 26.6240037,4.672 25.9200001,4.672 L25.6960001,4.672 C24.9919966,4.672 24.3306699,4.87466464 23.7120001,5.28 C22.687995,5.9200032 21.9840021,6.76266144 21.6000001,7.808 C21.4079992,8.36266944 21.3120001,8.99199648 21.3120001,9.696 C21.3120001,10.4000035 21.4079992,11.0293306 21.6000001,11.584 C21.9840021,12.6293386 22.687995,13.4826634 23.7120001,14.144 C24.3306699,14.5493354 24.9919966,14.752 25.6960001,14.752 L25.9200001,14.752 C26.6240037,14.752 27.2853304,14.5493354 27.9040001,14.144 C28.9493387,13.4826634 29.6533317,12.6293386 30.0160001,11.584 Z M37.8560003,19.072 L42.5280003,19.072 L42.5280003,7.392 C42.5280003,6.68799648 42.7786644,6.08533584 43.2800003,5.584 C43.7813361,5.08266416 44.3839968,4.832 45.0880003,4.832 C45.7920038,4.832 46.3946644,5.08266416 46.8960003,5.584 C47.3973361,6.08533584 47.6480003,6.68799648 47.6480003,7.392 L47.6480003,19.072 L52.3200003,19.072 L52.3200003,7.392 C52.3200003,6.68799648 52.5706644,6.08533584 53.0720003,5.584 C53.5733361,5.08266416 54.1759968,4.832 54.8800003,4.832 C55.5840038,4.832 56.1866644,5.08266416 56.6880003,5.584 C57.1893361,6.08533584 57.4400003,6.68799648 57.4400003,7.392 L57.4400003,19.072 L62.1120003,19.072 L62.1120003,6.112 C62.1120003,4.44799168 61.5200062,3.0293392 60.3360003,1.856 C59.1519944,0.6826608 57.7280086,0.096 56.0640003,0.096 C53.9733232,0.096 52.3200064,0.9493248 51.1040003,2.656 C49.8239939,0.97065824 48.1280108,0.128 46.0160003,0.128 C44.7359939,0.128 43.5733388,0.46932992 42.5280003,1.152 L42.5280003,0.384 L37.8560003,0.384 L37.8560003,19.072 Z M65.7280004,19.072 L70.4000004,19.072 L70.4000004,7.392 C70.4000004,6.68799648 70.6506646,6.08533584 71.1520004,5.584 C71.6533363,5.08266416 72.2559969,4.832 72.9600004,4.832 C73.6640039,4.832 74.2666646,5.08266416 74.7680004,5.584 C75.2693363,6.08533584 75.5200004,6.68799648 75.5200004,7.392 L75.5200004,19.072 L80.1920004,19.072 L80.1920004,7.392 C80.1920004,6.68799648 80.4426646,6.08533584 80.9440004,5.584 C81.4453363,5.08266416 82.0479969,4.832 82.7520004,4.832 C83.4560039,4.832 84.0586646,5.08266416 84.5600004,5.584 C85.0613363,6.08533584 85.3120004,6.68799648 85.3120004,7.392 L85.3120004,19.072 L89.9840004,19.072 L89.9840004,6.112 C89.9840004,4.44799168 89.3920063,3.0293392 88.2080004,1.856 C87.0239945,0.6826608 85.6000087,0.096 83.9360004,0.096 C81.8453233,0.096 80.1920065,0.9493248 78.9760004,2.656 C77.695994,0.97065824 76.000011,0.128 73.8880004,0.128 C72.607994,0.128 71.445339,0.46932992 70.4000004,1.152 L70.4000004,0.384 L65.7280004,0.384 L65.7280004,19.072 Z M110.912001,6.624 C111.104002,7.54133792 111.200001,8.45866208 111.200001,9.376 C111.200001,10.6133395 111.050669,11.7439949 110.752001,12.768 C110.090664,15.1146784 108.693345,16.9279936 106.560001,18.208 C105.215994,18.9973373 103.765342,19.392 102.208001,19.392 L101.856001,19.392 C99.8933241,19.392 98.1173419,18.7680062 96.5280006,17.52 C94.9386593,16.2719938 93.86667,14.6880096 93.3120006,12.768 C93.0133324,11.7439949 92.8640006,10.6133395 92.8640006,9.376 C92.8640006,8.45866208 92.9599996,7.54133792 93.1520006,6.624 C93.898671,4.2773216 95.3599897,2.47467296 97.5360006,1.216 C98.9013407,0.40532928 100.341326,0 101.856001,0 L102.208001,0 C103.722675,0 105.173327,0.40532928 106.560001,1.216 C108.714678,2.47467296 110.16533,4.2773216 110.912001,6.624 Z M106.240001,11.584 C106.432002,11.0293306 106.528001,10.4000035 106.528001,9.696 C106.528001,8.99199648 106.432002,8.36266944 106.240001,7.808 C105.877332,6.76266144 105.173339,5.9200032 104.128001,5.28 C103.509331,4.87466464 102.848004,4.672 102.144001,4.672 L101.920001,4.672 C101.215997,4.672 100.55467,4.87466464 99.9360006,5.28 C98.9119955,5.9200032 98.2080025,6.76266144 97.8240006,7.808 C97.6319996,8.36266944 97.5360006,8.99199648 97.5360006,9.696 C97.5360006,10.4000035 97.6319996,11.0293306 97.8240006,11.584 C98.2080025,12.6293386 98.9119955,13.4826634 99.9360006,14.144 C100.55467,14.5493354 101.215997,14.752 101.920001,14.752 L102.144001,14.752 C102.848004,14.752 103.509331,14.5493354 104.128001,14.144 C105.173339,13.4826634 105.877332,12.6293386 106.240001,11.584 Z M113.920001,19.072 L118.592001,19.072 L118.592001,7.776 C118.592001,6.96532928 118.879998,6.27200288 119.456001,5.696 C120.032004,5.11999712 120.72533,4.832 121.536001,4.832 C122.346671,4.832 123.039998,5.11999712 123.616001,5.696 C124.192004,6.27200288 124.480001,6.96532928 124.480001,7.776 L124.480001,19.072 L129.152001,19.072 L129.152001,6.784 C129.152001,4.94932416 128.485341,3.38667312 127.152001,2.096 C125.818661,0.80532688 124.22401,0.16 122.368001,0.16 C121.002661,0.16 119.744006,0.54399616 118.592001,1.312 L118.592001,0.384 L113.920001,0.384 L113.920001,19.072 Z M134.368001,12.896 C135.690674,13.7920045 137.151993,14.3466656 138.752001,14.56 C139.157336,14.6026669 139.530666,14.624 139.872001,14.624 C140.512004,14.624 141.141331,14.5493341 141.760001,14.4 C142.144003,14.3146662 142.453333,14.1120016 142.688001,13.792 C142.816001,13.6213325 142.880001,13.4080013 142.880001,13.152 C142.880001,12.5973306 142.613337,12.2560006 142.080001,12.128 L135.744001,10.624 C134.655995,10.3679987 133.776004,9.77067136 133.104001,8.832 C132.431997,7.89332864 132.096001,6.84800576 132.096001,5.696 C132.096001,4.67199488 132.383998,3.72800432 132.960001,2.864 C133.536004,1.99999568 134.303996,1.36533536 135.264001,0.96 C136.330673,0.5333312 137.439995,0.27733376 138.592001,0.192 C139.040003,0.14933312 139.477332,0.128 139.904001,0.128 C142.762682,0.128 145.354656,0.95999168 147.680001,2.624 L145.088001,6.4 C143.445326,5.35466144 141.653344,4.832 139.712001,4.832 C139.413333,4.832 139.093336,4.85333312 138.752001,4.896 C138.282665,4.896 137.83467,4.99199904 137.408001,5.184 C137.087999,5.35466752 136.928001,5.62133152 136.928001,5.984 C136.928001,6.4106688 137.130665,6.69866592 137.536001,6.848 C137.664001,6.89066688 137.813333,6.94399968 137.984001,7.008 L143.904001,8.352 C145.07734,8.62933472 146.031997,9.25332848 146.768001,10.224 C147.504005,11.1946715 147.872001,12.2879939 147.872001,13.504 C147.872001,14.912007 147.402672,16.1173283 146.464001,17.12 C145.290662,18.2933392 143.882676,18.9546659 142.240001,19.104 C141.386663,19.2106672 140.554672,19.264 139.744001,19.264 C138.93333,19.264 138.101338,19.2106672 137.248001,19.104 C135.242657,18.8479987 133.429342,18.090673 131.808001,16.832 L134.368001,12.896 Z" id="Logo"></path>
                <rect id="Rectangle-3" x="152" y="13" width="6" height="6"></rect>
            </g>
        </g>
    </g>
</svg>