<?xml version="1.0" encoding="UTF-8"?>
<svg width="32px" height="32px" viewBox="0 0 32 32" version="1.1" xmlns="http://www.w3.org/2000/svg" xmlns:xlink="http://www.w3.org/1999/xlink">
    <!-- Generator: Sketch 46 (44423) - http://www.bohemiancoding.com/sketch -->
    <title>Slack_Mark</title>
    <desc>Created with Sketch.</desc>
    <defs></defs>
    <g id="Homepage" stroke="none" stroke-width="1" fill="none" fill-rule="evenodd">
        <g id="Desktop" transform="translate(-471.000000, -579.000000)" fill-rule="nonzero">
            <g id="Hero-Buttons" transform="translate(194.000000, 565.000000)">
                <g id="Slack_Mark" transform="translate(277.000000, 14.000000)">
                    <path d="M20.5447516,1.95201452 C20.0480783,0.470691655 18.4534954,-0.334940082 16.9634753,0.132846088 C15.4734552,0.626620378 14.6630934,2.21189573 15.1336261,3.6932186 L22.4791637,26.1469547 C22.975837,27.5243251 24.4919978,28.3039687 25.9297365,27.8881588 C27.4458973,27.4463608 28.3608219,25.8610854 27.8641485,24.4057507 C27.8641485,24.3537744 20.5447516,1.95201452 20.5447516,1.95201452 Z" id="Shape" fill="#ECB32D"></path>
                    <path d="M9.54475163,5.95201452 C9.04807827,4.47069165 7.45349537,3.66505992 5.96347529,4.13284609 C4.4734552,4.62662038 3.6630934,6.21189573 4.13362606,7.6932186 L11.4791637,30.1469547 C11.975837,31.5243251 13.4919978,32.3039687 14.9297365,31.8881588 C16.4458973,31.4463608 17.3608219,29.8610854 16.8641485,28.4057507 C16.8641485,28.3537744 9.54475163,5.95201452 9.54475163,5.95201452 Z" id="Shape" fill="#63C1A0"></path>
                    <path d="M30.0497956,20.5336245 C31.5297448,20.0379478 32.3346295,18.4465649 31.8672771,16.959535 C31.3739607,15.4725051 29.7901553,14.6637695 28.3102061,15.1333579 L5.85132697,22.4902428 C4.4752338,22.9859195 3.69631313,24.4990376 4.11173749,25.9338911 C4.55312586,27.4470093 6.13693121,28.3600978 7.59091645,27.8644212 C7.64284449,27.8644212 30.0497956,20.5336245 30.0497956,20.5336245 Z" id="Shape" fill="#E01A59"></path>
                    <path d="M10.7116788,27 C12.1423358,26.540146 14.0072993,25.9270073 16,25.2883212 C15.540146,23.8576642 14.9270073,21.9927007 14.2883212,20 L9,21.7116788 L10.7116788,27 Z" id="Shape" fill="#331433"></path>
                    <path d="M21.7116788,23 C23.7043796,22.3613139 25.5693431,21.7481752 27,21.2883212 C26.540146,19.8576642 25.9270073,17.9927007 25.2883212,16 L20,17.7116788 L21.7116788,23 Z" id="Shape" fill="#D62027"></path>
                    <path d="M26.0479855,9.54475163 C27.5293083,9.04807827 28.3349401,7.45349537 27.8671539,5.96347529 C27.3733796,4.4734552 25.7881043,3.6630934 24.3067814,4.13362606 L1.85304527,11.4791637 C0.475674884,11.975837 -0.303968732,13.4919978 0.111841196,14.9297365 C0.553639245,16.4458973 2.1389146,17.3608219 3.59424935,16.8641485 C3.64622559,16.8641485 26.0479855,9.54475163 26.0479855,9.54475163 Z" id="Shape" fill="#89D3DF"></path>
                    <path d="M6.71167883,16 C8.14233577,15.540146 10.0072993,14.9270073 12,14.2883212 C11.3613139,12.2956204 10.7481752,10.4306569 10.2883212,9 L5,10.7116788 L6.71167883,16 Z" id="Shape" fill="#258B74"></path>
                    <path d="M17.7116788,12 C19.7043796,11.3613139 21.5693431,10.7481752 23,10.2883212 C22.3613139,8.29562044 21.7481752,6.43065693 21.2883212,5 L16,6.71167883 L17.7116788,12 Z" id="Shape" fill="#819C3C"></path>
                </g>
            </g>
        </g>
    </g>
</svg>