<?xml version="1.0" encoding="UTF-8"?>
<svg width="334px" height="282px" viewBox="0 0 334 282" version="1.1" xmlns="http://www.w3.org/2000/svg" xmlns:xlink="http://www.w3.org/1999/xlink">
    <!-- Generator: Sketch 47 (45396) - http://www.bohemiancoding.com/sketch -->
    <title>Combined Shape</title>
    <desc>Created with Sketch.</desc>
    <defs></defs>
    <g id="Page-1" stroke="none" stroke-width="1" fill="none" fill-rule="evenodd">
        <g id="telegram" fill-rule="nonzero" fill="#FFFFFF">
            <path d="M332.882,19.418 L280.851,268.178 C278.409,279.851 264.718,285.094 255.104,278.037 L176.545,220.372 L136.506,261.253 C129.479,268.428 117.34,265.524 114.321,255.945 L85.42,164.239 L7.979,141.371 C-2.181,138.371 -2.78,124.206 7.091,120.359 L311.844,1.6 C323.444,-2.92 335.431,7.232 332.882,19.418 Z M269.244,50.903 L102.082,154.579 C99.139,156.404 97.8,159.988 98.827,163.296 L121.25,235.549 C121.721,237.067 123.933,236.858 124.111,235.278 L129.561,186.83 C129.771,184.958 130.669,183.231 132.08,181.983 L273.636,56.806 C277.025,53.81 273.089,48.518 269.244,50.903 Z" id="Combined-Shape"></path>
        </g>
    </g>
</svg>